
    <svg height="200" width="300">
        
        <path d="M27.258699417114258 62.53409194946289 L25.910112380981445 67.40740203857422 L21.930625915527344 79.01821899414062 L18.430126190185547 90.28890991210938 L17.442914962768555 104.98603820800781 L17.814453125 112.33898162841797 L22.48102378845215 122.78160858154297 L30.128950119018555 131.96873474121094 L38.864173889160156 136.6718292236328 L49.191261291503906 138.16664123535156 L65.23080444335938 138.16664123535156 L75.95594024658203 136.6103515625 L84.03042602539062 131.61346435546875 L86.47969055175781 125.88423156738281 L86.53693389892578 116.5886001586914 L85.93505096435547 111.9155044555664 L82.96837615966797 103.84907531738281 L81.80282592773438 98.01997375488281 L79.2619857788086 89.08039093017578 L77.57270812988281 86.59652709960938 L74.05867004394531 82.43672180175781 L72.0871810913086 81.4299087524414 L70.17729187011719 82.42021179199219 L67.99600219726562 85.89313507080078 L66.90536499023438 89.97509765625 L66.90536499023438 93.84313201904297 L68.18177032470703 99.79605102539062 L69.80575561523438 103.62975311279297 L72.79743957519531 107.42807006835938 L75.7071533203125 110.1554946899414 L80.89794921875 112.71764373779297 L84.11595916748047 114.76848602294922 L97.4391860961914 117.4231185913086 L112.67424011230469 117.4231185913086 L142.70335388183594 112.89148712158203 L151.8046417236328 109.98596954345703 L156.58950805664062 104.89197540283203 L159.26243591308594 100.1730728149414 L159.26243591308594 95.07270812988281 L157.81224060058594 89.05475616455078 L155.63095092773438 85.42094421386719 L151.33106994628906 83.182373046875 L147.759521484375 80.39153289794922 L143.54693603515625 79.60684204101562 L139.8046417236328 79.60684204101562 L137.8091278076172 81.95571899414062 L135.7227783203125 87.42489624023438 L134.16566467285156 94.55155944824219 L134.16566467285156 100.71990203857422 L135.51046752929688 104.22669219970703 L137.9662322998047 109.15092468261719 L141.27024841308594 113.4514389038086 L144.7861328125 116.76964569091797 L148.60545349121094 119.02741241455078 L155.72314453125 124.34583282470703 L165.67677307128906 127.33946990966797 L185.62318420410156 129.79039001464844 L205.25640869140625 130.89901733398438 L219.83779907226562 130.52947998046875 L238.0012664794922 127.31826782226562 L249.0786590576172 119.6421127319336 L251.25994873046875 114.31307983398438 L251.51504516601562 103.64197540283203 L246.89736938476562 96.00061798095703 L242.77049255371094 91.97412109375 L237.8415069580078 89.80615234375 L234.95506286621094 88.6975326538086 L229.03236389160156 88.6975326538086 L226.88827514648438 89.25183868408203 L224.44418334960938 92.38172149658203 L221.80059814453125 97.96635437011719 L221.80059814453125 103.72822570800781 L221.80059814453125 108.47423553466797 L222.37271118164062 113.06254577636719 L225.07252502441406 118.634765625 L229.33648681640625 122.42143249511719 L232.8329620361328 124.59121704101562 L237.18019104003906 127.9919662475586 L245.38433837890625 133.06698608398438 L252.04966735839844 135.25958251953125 L258.1103515625 137.79710388183594 L263.7320556640625 138.88108825683594 L271.9274597167969 138.88108825683594 L279.5970458984375 138.16664123535156 L288.5146789550781 137.79710388183594 L292.7320861816406 135.97402954101562 L328.8724670410156 133.78834533691406 L332.0051574707031 131.98992919921875 L291.6135559082031 65.0231704711914 L291.6135559082031 64.33198547363281" fill="none" stroke="black" strokeWidth="2" />
    </svg>
    