
    <svg height="200" width="300">
        
        <path d="M45.08052062988281 62.516780853271484 L45.08052062988281 65.80602264404297 L165.81077575683594 208.52401733398438 L270.52734375 338.87774658203125 L199.59381103515625 132.8525848388672 L108.24608612060547 67.90365600585938 L51.5748405456543 85.95468139648438 L55.324317932128906 109.19422149658203 L72.35857391357422 122.53276062011719 L103.96206665039062 131.26170349121094 L150.71107482910156 125.79669952392578 L147.98446655273438 124.7087173461914 L113.31840515136719 125.92143249511719 L124.93363952636719 121.49988555908203 L183.5417938232422 101.43102264404297 L112.29851531982422 104.5400390625 L67.41964721679688 113.36776733398438 L82.78978729248047 107.641845703125 L106.91252136230469 97.4260482788086 L86.76400756835938 110.43667602539062 L148.43365478515625 78.78278350830078 L109.80597686767578 105.7829360961914 L113.44345092773438 103.60697937011719 L138.52822875976562 89.79216766357422 L12.319449424743652 117.3901596069336 L3.0832741260528564 119.0693359375 L233.8036651611328 20.90789222717285 L222.24220275878906 24.959928512573242 L178.4508819580078 48.5753059387207 L164.08013916015625 58.7225456237793 L166.8969268798828 57.43110656738281 L164.77110290527344 59.558040618896484 L163.98455810546875 59.948753356933594 L162.4474639892578 60.3408203125" fill="none" stroke="black" strokeWidth="2" />
    </svg>
    