
    <svg height="200" width="300">
        
        <path d="M63.6214485168457 86.89910125732422 L70.46137237548828 80.419189453125 L97.2347412109375 62.00265121459961 L128.54754638671875 46.509952545166016 L171.04891967773438 43.6136360168457 L196.16796875 54.97880554199219 L223.19635009765625 77.32433319091797 L230.13540649414062 92.1328125 L231.2568359375 114.69495391845703 L220.84361267089844 136.61660766601562 L201.26513671875 143.57957458496094 L163.1613311767578 143.58676147460938 L139.08311462402344 138.10105895996094 L126.64978790283203 131.37327575683594 L117.3997802734375 120.88658905029297 L114.1745376586914 109.66630554199219 L119.04756164550781 95.95840454101562 L132.86106872558594 84.63709259033203 L142.92726135253906 80.3459243774414 L153.24525451660156 79.96375274658203 L163.10374450683594 87.8222427368164 L168.71865844726562 93.2251205444336 L170.52841186523438 100.55925750732422 L167.25648498535156 108.5502700805664 L158.1492156982422 111.97856140136719 L152.806396484375 111.97856140136719 L149.44664001464844 108.51720428466797 L147.26536560058594 106.3615493774414 L147.26536560058594 104.49478149414062" fill="none" stroke="black" strokeWidth="2" />
    </svg>
    